<?xml version="1.0" encoding="UTF-8" standalone="no"?>
<!DOCTYPE svg PUBLIC "-//W3C//DTD SVG 1.1//EN"
 "http://www.w3.org/Graphics/SVG/1.1/DTD/svg11.dtd">
<!-- Generated by graphviz version 2.26.3 (20100126.1600)
 -->
<!-- Title: G Pages: 1 -->
<svg width="492pt" height="350pt"
 viewBox="0.00 0.00 492.00 350.00" xmlns="http://www.w3.org/2000/svg" xmlns:xlink="http://www.w3.org/1999/xlink">
<g id="graph1" class="graph" transform="scale(1 1) rotate(0) translate(4 346)">
<title>G</title>
<polygon fill="white" stroke="white" points="-4,5 -4,-346 489,-346 489,5 -4,5"/>
<g id="graph2" class="cluster"><title>cluster_Global</title>
<polyline fill="none" stroke="gray" points="20,-44 464,-44 "/>
<path fill="none" stroke="gray" d="M464,-44C470,-44 476,-50 476,-56"/>
<polyline fill="none" stroke="gray" points="476,-56 476,-322 "/>
<path fill="none" stroke="gray" d="M476,-322C476,-328 470,-334 464,-334"/>
<polyline fill="none" stroke="gray" points="464,-334 20,-334 "/>
<path fill="none" stroke="gray" d="M20,-334C14,-334 8,-328 8,-322"/>
<polyline fill="none" stroke="gray" points="8,-322 8,-56 "/>
<path fill="none" stroke="gray" d="M8,-56C8,-50 14,-44 20,-44"/>
<text text-anchor="middle" x="242" y="-320.1" font-family="Times Roman,serif" font-size="11.00" fill="gray">Global</text>
</g>
<!-- \\Instagram_Base -->
<g id="node2" class="node"><title>\\Instagram_Base</title>
<polygon fill="none" stroke="black" points="433,-304 323,-304 323,-268 433,-268 433,-304"/>
<text text-anchor="middle" x="378" y="-283.1" font-family="Courier,monospace" font-size="11.00">Instagram_Base</text>
</g>
<!-- \\Instagram_Resource_Abstract -->
<g id="node3" class="node"><title>\\Instagram_Resource_Abstract</title>
<polygon fill="none" stroke="black" points="216,-223 16,-223 16,-187 216,-187 216,-223"/>
<text text-anchor="start" x="82" y="-210.433" font-family="Courier,monospace" font-size="11.00">«abstract»</text>
<text text-anchor="start" x="24.5" y="-197.233" font-family="Courier,monospace" font-size="11.00">Instagram_Resource_Abstract</text>
</g>
<!-- \\Instagram_Resource_Photo -->
<g id="node4" class="node"><title>\\Instagram_Resource_Photo</title>
<polygon fill="none" stroke="black" points="467,-250 289,-250 289,-214 467,-214 467,-250"/>
<text text-anchor="middle" x="378" y="-229.1" font-family="Courier,monospace" font-size="11.00">Instagram_Resource_Photo</text>
</g>
<!-- \\Instagram_Resource_Photo&#45;&gt;\\Instagram_Resource_Abstract -->
<g id="edge3" class="edge"><title>\\Instagram_Resource_Photo&#45;&gt;\\Instagram_Resource_Abstract</title>
<path fill="none" stroke="black" d="M288.201,-222.746C268.215,-220.686 246.804,-218.48 226.107,-216.347"/>
<polygon fill="none" stroke="black" points="226.32,-212.85 216.014,-215.307 225.602,-219.814 226.32,-212.85"/>
</g>
<!-- \\Instagram_Resource_User -->
<g id="node5" class="node"><title>\\Instagram_Resource_User</title>
<polygon fill="none" stroke="black" points="464,-196 292,-196 292,-160 464,-160 464,-196"/>
<text text-anchor="middle" x="378" y="-175.1" font-family="Courier,monospace" font-size="11.00">Instagram_Resource_User</text>
</g>
<!-- \\Instagram_Resource_User&#45;&gt;\\Instagram_Resource_Abstract -->
<g id="edge5" class="edge"><title>\\Instagram_Resource_User&#45;&gt;\\Instagram_Resource_Abstract</title>
<path fill="none" stroke="black" d="M291.849,-186.878C270.896,-189.037 248.202,-191.376 226.301,-193.633"/>
<polygon fill="none" stroke="black" points="225.891,-190.157 216.303,-194.663 226.609,-197.12 225.891,-190.157"/>
</g>
<!-- \\Instagram_ResultSet -->
<g id="node6" class="node"><title>\\Instagram_ResultSet</title>
<polygon fill="none" stroke="black" points="450,-142 306,-142 306,-106 450,-106 450,-142"/>
<text text-anchor="middle" x="378" y="-121.1" font-family="Courier,monospace" font-size="11.00">Instagram_ResultSet</text>
</g>
<!-- \\Iterator -->
<g id="node11" class="node"><title>\\Iterator</title>
<ellipse fill="none" stroke="black" cx="116" cy="-18" rx="50.9221" ry="18"/>
<text text-anchor="middle" x="116" y="-13.9" font-family="Times Roman,serif" font-size="14.00" fill="gray">\Iterator</text>
</g>
<!-- \\Instagram_ResultSet&#45;&gt;\\Iterator -->
<g id="edge7" class="edge"><title>\\Instagram_ResultSet&#45;&gt;\\Iterator</title>
<path fill="none" stroke="black" stroke-dasharray="1,5" d="M308.157,-105.945C301.2,-103.293 294.365,-100.318 288,-97 251.809,-78.1331 252.873,-57.4985 216,-40 203.142,-33.8979 188.545,-29.4607 174.554,-26.244"/>
<polygon fill="none" stroke="black" points="175.017,-22.7642 164.508,-24.111 173.563,-29.6116 175.017,-22.7642"/>
</g>
<!-- \\Instagram_Factory -->
<g id="node7" class="node"><title>\\Instagram_Factory</title>
<polygon fill="none" stroke="black" points="443,-88 313,-88 313,-52 443,-52 443,-88"/>
<text text-anchor="middle" x="378" y="-67.1" font-family="Courier,monospace" font-size="11.00">Instagram_Factory</text>
</g>
</g>
</svg>
